<?xml version="1.0" standalone="no"?><!-- Generator: Gravit.io -->
<svg xmlns="http://www.w3.org/2000/svg" xmlns:xlink="http://www.w3.org/1999/xlink" style="isolation:isolate"
     viewBox="0 0 482 56">
    <g>
        <g id="Group">
            <path d=" M 479.965 52.028 L 426.969 52.028 C 425.855 52.028 424.983 52.948 424.983 54.014 C 424.983 55.08 425.903 56 426.969 56 L 480.014 56 C 481.128 56 482 55.08 482 54.014 C 482 52.948 481.08 52.028 479.965 52.028 L 479.965 52.028 Z  M 424.983 34.443 L 424.934 43.889 C 424.934 44.422 425.128 44.955 425.516 45.343 C 425.903 45.73 426.388 45.924 426.92 45.924 L 436.318 45.875 C 436.851 45.875 437.336 45.682 437.723 45.294 L 452.141 30.876 L 470.18 12.837 C 470.955 12.062 470.955 10.803 470.18 9.979 L 460.879 0.581 C 460.104 -0.194 458.844 -0.194 458.021 0.581 L 451.529 7.121 L 425.564 33.038 C 425.225 33.426 424.983 33.91 424.983 34.443 L 424.983 34.443 Z  M 459.474 4.844 L 466.014 11.384 L 462.332 15.066 L 455.792 8.526 L 459.474 4.844 Z  M 429.003 35.315 L 452.934 11.384 L 459.474 17.924 L 435.543 41.806 L 428.955 41.855 L 429.003 35.315 L 429.003 35.315 Z "
                  fill-rule="evenodd" fill="rgb(255,255,255)"/>
            <path d=" M 318.029 50.858 L 314.788 41.233 L 297.911 41.233 L 294.703 50.858 L 284.468 50.858 L 301.858 4.142 L 310.778 4.142 L 328.264 50.858 L 318.029 50.858 Z  M 306.318 15.949 L 300.51 33.436 L 312.189 33.436 L 306.318 15.949 Z  M 350.692 34.398 L 342.254 34.398 L 342.254 50.858 L 332.628 50.858 L 332.628 4.142 L 350.853 4.142 L 350.853 4.142 Q 356.115 4.142 360.109 6.067 L 360.109 6.067 L 360.109 6.067 Q 364.104 7.992 366.254 11.537 L 366.254 11.537 L 366.254 11.537 Q 368.403 15.083 368.403 19.607 L 368.403 19.607 L 368.403 19.607 Q 368.403 26.473 363.703 30.436 L 363.703 30.436 L 363.703 30.436 Q 359.002 34.398 350.692 34.398 L 350.692 34.398 Z  M 342.254 11.939 L 342.254 26.602 L 350.853 26.602 L 350.853 26.602 Q 354.671 26.602 356.676 24.805 L 356.676 24.805 L 356.676 24.805 Q 358.681 23.008 358.681 19.671 L 358.681 19.671 L 358.681 19.671 Q 358.681 16.238 356.66 14.12 L 356.66 14.12 L 356.66 14.12 Q 354.639 12.003 351.077 11.939 L 351.077 11.939 L 342.254 11.939 Z  M 399.238 38.602 L 399.238 38.602 L 399.238 38.602 Q 399.238 35.874 397.312 34.414 L 397.312 34.414 L 397.312 34.414 Q 395.387 32.955 390.382 31.334 L 390.382 31.334 L 390.382 31.334 Q 385.377 29.714 382.457 28.142 L 382.457 28.142 L 382.457 28.142 Q 374.5 23.842 374.5 16.559 L 374.5 16.559 L 374.5 16.559 Q 374.5 12.773 376.633 9.805 L 376.633 9.805 L 376.633 9.805 Q 378.767 6.837 382.762 5.168 L 382.762 5.168 L 382.762 5.168 Q 386.756 3.5 391.73 3.5 L 391.73 3.5 L 391.73 3.5 Q 396.735 3.5 400.649 5.313 L 400.649 5.313 L 400.649 5.313 Q 404.564 7.126 406.73 10.43 L 406.73 10.43 L 406.73 10.43 Q 408.895 13.735 408.895 17.939 L 408.895 17.939 L 399.27 17.939 L 399.27 17.939 Q 399.27 14.73 397.248 12.949 L 397.248 12.949 L 397.248 12.949 Q 395.227 11.168 391.569 11.168 L 391.569 11.168 L 391.569 11.168 Q 388.04 11.168 386.082 12.66 L 386.082 12.66 L 386.082 12.66 Q 384.125 14.152 384.125 16.591 L 384.125 16.591 L 384.125 16.591 Q 384.125 18.869 386.419 20.409 L 386.419 20.409 L 386.419 20.409 Q 388.713 21.949 393.173 23.297 L 393.173 23.297 L 393.173 23.297 Q 401.387 25.767 405.141 29.425 L 405.141 29.425 L 405.141 29.425 Q 408.895 33.083 408.895 38.537 L 408.895 38.537 L 408.895 38.537 Q 408.895 44.602 404.307 48.051 L 404.307 48.051 L 404.307 48.051 Q 399.719 51.5 391.954 51.5 L 391.954 51.5 L 391.954 51.5 Q 386.564 51.5 382.136 49.527 L 382.136 49.527 L 382.136 49.527 Q 377.708 47.553 375.382 44.12 L 375.382 44.12 L 375.382 44.12 Q 373.056 40.687 373.056 36.163 L 373.056 36.163 L 382.713 36.163 L 382.713 36.163 Q 382.713 43.896 391.954 43.896 L 391.954 43.896 L 391.954 43.896 Q 395.387 43.896 397.312 42.5 L 397.312 42.5 L 397.312 42.5 Q 399.238 41.104 399.238 38.602 Z "
                  fill-rule="evenodd" fill="rgb(255,255,255)"/>
            <path d=" M 6.363 3.5 L 6.363 46.324 L 29.11 46.324 L 29.11 51.5 L 0 51.5 L 0 3.5 L 6.363 3.5 Z  M 67.418 51.5 L 62.835 38.973 L 42.725 38.973 L 38.209 51.5 L 31.681 51.5 L 50.011 3.5 L 55.549 3.5 L 73.912 51.5 L 67.418 51.5 Z  M 52.78 11.313 L 44.637 33.764 L 60.956 33.764 L 52.78 11.313 Z  M 108.396 51.5 L 97.978 32.082 L 86.703 32.082 L 86.703 51.5 L 80.341 51.5 L 80.341 3.5 L 96.231 3.5 L 96.231 3.5 Q 104.341 3.5 108.709 7.192 L 108.709 7.192 L 108.709 7.192 Q 113.077 10.885 113.077 17.94 L 113.077 17.94 L 113.077 17.94 Q 113.077 22.423 110.654 25.753 L 110.654 25.753 L 110.654 25.753 Q 108.231 29.082 103.912 30.731 L 103.912 30.731 L 115.187 51.104 L 115.187 51.5 L 108.396 51.5 Z  M 86.703 8.709 L 86.703 26.907 L 96.429 26.907 L 96.429 26.907 Q 101.143 26.907 103.929 24.467 L 103.929 24.467 L 103.929 24.467 Q 106.714 22.027 106.714 17.94 L 106.714 17.94 L 106.714 17.94 Q 106.714 13.489 104.06 11.115 L 104.06 11.115 L 104.06 11.115 Q 101.407 8.742 96.396 8.709 L 96.396 8.709 L 86.703 8.709 Z  M 153.033 51.5 L 148.451 38.973 L 128.341 38.973 L 123.824 51.5 L 117.297 51.5 L 135.626 3.5 L 141.165 3.5 L 159.527 51.5 L 153.033 51.5 Z  M 138.396 11.313 L 130.253 33.764 L 146.571 33.764 L 138.396 11.313 Z  M 168.231 3.5 L 181.879 43.093 L 195.593 3.5 L 202.516 3.5 L 184.714 51.5 L 179.11 51.5 L 161.341 3.5 L 168.231 3.5 Z  M 236.077 24.137 L 236.077 29.313 L 215.275 29.313 L 215.275 46.324 L 239.44 46.324 L 239.44 51.5 L 208.945 51.5 L 208.945 3.5 L 239.11 3.5 L 239.11 8.709 L 215.275 8.709 L 215.275 24.137 L 236.077 24.137 Z  M 253.681 3.5 L 253.681 46.324 L 276.429 46.324 L 276.429 51.5 L 247.319 51.5 L 247.319 3.5 L 253.681 3.5 Z "
                  fill-rule="evenodd" fill="rgb(255,255,255)"/>
        </g>
    </g>
</svg>