<?xml version="1.0" standalone="no"?><!-- Generator: Gravit.io -->
<svg xmlns="http://www.w3.org/2000/svg" xmlns:xlink="http://www.w3.org/1999/xlink" style="isolation:isolate"
     viewBox="0 0 140 56">
    <g>
        <g id="Group">
            <path d=" M 68.741 51.584 L 65.338 41.477 L 47.617 41.477 L 44.248 51.584 L 33.5 51.584 L 51.761 2.529 L 61.127 2.529 L 79.489 51.584 L 68.741 51.584 Z  M 56.444 14.928 L 50.346 33.29 L 62.609 33.29 L 56.444 14.928 Z "
                  fill-rule="evenodd" fill="rgb(232,62,140)"/>
            <path d=" M 7.002 2.529 L 7.002 46.294 L 30.25 46.294 L 30.25 51.584 L 0.5 51.584 L 0.5 2.529 L 7.002 2.529 Z "
                  fill="rgb(232,62,140)"/>
            <path d=" M 137.503 51.579 L 85.497 51.579 C 84.403 51.579 83.548 52.482 83.548 53.528 C 83.548 54.574 84.451 55.477 85.497 55.477 L 137.551 55.477 C 138.644 55.477 139.5 54.574 139.5 53.528 C 139.5 52.482 138.597 51.579 137.503 51.579 L 137.503 51.579 Z  M 83.548 34.323 L 83.5 43.593 C 83.5 44.115 83.69 44.638 84.07 45.019 C 84.451 45.399 84.926 45.589 85.449 45.589 L 94.671 45.542 C 95.194 45.542 95.67 45.351 96.05 44.971 L 110.198 30.823 L 127.901 13.121 C 128.661 12.36 128.661 11.124 127.901 10.316 L 118.773 1.093 C 118.013 0.333 116.777 0.333 115.969 1.093 L 109.598 7.511 L 84.118 32.944 C 83.785 33.324 83.548 33.8 83.548 34.323 L 83.548 34.323 Z  M 117.395 5.277 L 123.812 11.694 L 120.199 15.307 L 113.782 8.89 L 117.395 5.277 Z  M 87.493 35.178 L 110.977 11.694 L 117.395 18.112 L 93.911 41.548 L 87.446 41.596 L 87.493 35.178 L 87.493 35.178 Z "
                  fill-rule="evenodd" fill="rgb(102,102,102)"/>
        </g>
    </g>
</svg>