<?xml version="1.0" standalone="no"?><!-- Generator: Gravit.io -->
<svg xmlns="http://www.w3.org/2000/svg" xmlns:xlink="http://www.w3.org/1999/xlink" style="isolation:isolate"
     viewBox="0 0 16 16">
    <g>
        <path d=" M 15.43 14.737 L 0.57 14.737 C 0.258 14.737 0.014 14.995 0.014 15.294 C 0.014 15.593 0.272 15.851 0.57 15.851 L 15.443 15.851 C 15.756 15.851 16 15.593 16 15.294 C 16 14.995 15.742 14.737 15.43 14.737 L 15.43 14.737 Z  M 0.014 9.806 L 0 12.455 C 0 12.604 0.054 12.754 0.163 12.862 C 0.272 12.971 0.407 13.025 0.557 13.025 L 3.192 13.012 C 3.341 13.012 3.477 12.958 3.586 12.849 L 7.628 8.806 L 12.686 3.749 C 12.903 3.531 12.903 3.178 12.686 2.947 L 10.078 0.312 C 9.861 0.095 9.508 0.095 9.277 0.312 L 7.457 2.146 L 0.177 9.413 C 0.081 9.521 0.014 9.657 0.014 9.806 L 0.014 9.806 Z  M 9.684 1.508 L 11.518 3.341 L 10.486 4.374 L 8.652 2.54 L 9.684 1.508 Z  M 1.141 10.051 L 7.851 3.341 L 9.684 5.175 L 2.975 11.871 L 1.127 11.885 L 1.141 10.051 L 1.141 10.051 Z "
              fill-rule="evenodd" fill="rgb(232,62,140)"/>
    </g>
</svg>